#!OML:ASF H:\ManfredETheater\Project 1\Capture day 1\Session 1\subject.ASF
:FULLY-SPECIFIED
:DEGREES
186
root -1.69717 16.5058 36.8907 13.2192 47.7864 7.01894
lowerback 22.1594 -0.198995 -1.30491
upperback 3.54142 -0.207272 2.32507
thorax -8.48272 0.0296652 3.34697
lowerneck -4.59401 -14.2195 -16.2499
upperneck -4.51861 -18.2902 17.1627
head 2.53437 -8.93355 6.63802
rclavicle 3.02153e-014 -1.90833e-014
rhumerus -40.5668 -14.6273 -70.9423
rradius 37.8515
rwrist -3.96203
rhand -22.2628 -12.3639
rfingers 7.12502
rthumb 4.15502 -42.3031
lclavicle 3.02153e-014 -1.90833e-014
lhumerus -50.0309 16.1164 65.973
lradius 59.8801
lwrist 1.79975
lhand -22.0168 11.6957
lfingers 7.12502
lthumb 4.39252 41.6302
rfemur -35.4289 -16.858 9.28149
rtibia 48.0551
rfoot -12.457 -5.70938
rtoes 1.10201
lfemur -21.4964 -4.56828 -5.92044
ltibia 42.6213
lfoot -14.3705 5.54803
ltoes -26.9143
187
root -1.68741 16.5468 36.9972 13.0789 47.0106 7.00171
lowerback 21.8778 -0.240098 -1.41997
upperback 3.36782 -0.304094 2.23065
thorax -8.51766 -0.01616 3.33512
lowerneck -4.79803 -14.0709 -16.2067
upperneck -4.36953 -18.0731 17.1052
head 2.56643 -8.81474 6.62448
rclavicle -7.95139e-016 -3.02153e-014
rhumerus -40.6541 -14.344 -71.2768
rradius 37.9181
rwrist -3.93206
rhand -22.1587 -12.3941
rfingers 7.12502
rthumb 4.25556 -42.3314
lclavicle -7.95139e-016 -3.02153e-014
lhumerus -49.9567 16.1308 65.929
lradius 59.7504
lwrist 1.95046
lhand -21.9683 11.8877
lfingers 7.12502
lthumb 4.43935 41.8212
rfemur -35.0435 -16.4759 9.50044
rtibia 47.6724
rfoot -12.5019 -5.50305
rtoes 1.28939
lfemur -20.7438 -4.64353 -5.79227
ltibia 42.3259
lfoot -13.4341 5.56775
ltoes -27.6799
188
root -1.67904 16.5881 37.1052 12.9327 46.2303 6.98686
lowerback 21.5854 -0.274571 -1.54305
upperback 3.20668 -0.392697 2.13957
thorax -8.53294 -0.0578787 3.32837
lowerneck -4.98884 -13.9245 -16.1955
upperneck -4.22486 -17.8601 17.0767
head 2.60199 -8.69814 6.62448
rclavicle 7.15625e-015 -2.38542e-014
rhumerus -40.7256 -14.102 -71.5992
rradius 37.9952
rwrist -3.89915
rhand -22.0938 -12.4462
rfingers 7.12502
rthumb 4.31817 -42.3822
lclavicle 7.15625e-015 -2.38542e-014
lhumerus -49.8448 16.2119 65.9018
lradius 59.569
lwrist 2.04051
lhand -21.8951 12.0167
lfingers 7.12502
lthumb 4.51008 41.9487
rfemur -34.6266 -16.0421 9.70833
rtibia 47.2686
rfoot -12.5519 -5.3336
rtoes 1.5095
lfemur -19.9946 -4.71872 -5.67508
ltibia 42.0387
lfoot -12.4502 5.57741
ltoes -28.3575
189
root -1.67173 16.6293 37.2142 12.7703 45.4422 6.9661
lowerback 21.2776 -0.301476 -1.66961
upperback 3.06497 -0.470161 2.0555
thorax -8.51846 -0.0944088 3.3271
lowerneck -5.18277 -13.7835 -16.2032
upperneck -4.08262 -17.6528 17.0565
head 2.6408 -8.58411 6.62885
rclavicle -3.1408e-014 -3.65764e-014
rhumerus -40.7717 -13.8909 -71.9109
rradius 38.0807
rwrist -3.86807
rhand -22.0675 -12.5221
rfingers 7.12502
rthumb 4.34357 -42.4576
lclavicle -3.1408e-014 -3.65764e-014
lhumerus -49.6877 16.3574 65.8963
lradius 59.3324
lwrist 2.08547
lhand -21.7852 12.0493
lfingers 7.12502
lthumb 4.61619 41.979
rfemur -34.1726 -15.5458 9.90458
rtibia 46.8417
rfoot -12.605 -5.19642
rtoes 1.74718
lfemur -19.2378 -4.79916 -5.56652
ltibia 41.7535
lfoot -11.4241 5.58941
ltoes -28.9277
